<mxfile host="app.diagrams.net" modified="2023-07-25T14:44:49.626Z" agent="Mozilla/5.0 (Windows NT 10.0; Win64; x64) AppleWebKit/537.36 (KHTML, like Gecko) Chrome/114.0.0.0 YaBrowser/23.7.0.2534 Yowser/2.5 Safari/537.36" etag="5AHFaEYx-kvwjROJsmEl" version="21.6.5" type="device">
  <diagram name="Страница 1" id="YinUiNS_I3btrKBqKsuR">
    <mxGraphModel dx="1290" dy="575" grid="1" gridSize="10" guides="1" tooltips="1" connect="1" arrows="1" fold="1" page="1" pageScale="1" pageWidth="827" pageHeight="1169" math="0" shadow="0">
      <root>
        <mxCell id="0" />
        <mxCell id="1" parent="0" />
        <mxCell id="wQLp2Vd-kYFk8De9ZDS0-15" style="edgeStyle=orthogonalEdgeStyle;rounded=0;orthogonalLoop=1;jettySize=auto;html=1;entryX=0.5;entryY=0;entryDx=0;entryDy=0;" parent="1" source="wQLp2Vd-kYFk8De9ZDS0-1" target="wQLp2Vd-kYFk8De9ZDS0-2" edge="1">
          <mxGeometry relative="1" as="geometry" />
        </mxCell>
        <mxCell id="wQLp2Vd-kYFk8De9ZDS0-1" value="SecondArrayWithIf" style="rounded=1;whiteSpace=wrap;html=1;" parent="1" vertex="1">
          <mxGeometry x="110" y="20" width="120" height="20" as="geometry" />
        </mxCell>
        <mxCell id="wQLp2Vd-kYFk8De9ZDS0-14" style="edgeStyle=orthogonalEdgeStyle;rounded=0;orthogonalLoop=1;jettySize=auto;html=1;entryX=0.5;entryY=0;entryDx=0;entryDy=0;" parent="1" source="wQLp2Vd-kYFk8De9ZDS0-2" target="wQLp2Vd-kYFk8De9ZDS0-3" edge="1">
          <mxGeometry relative="1" as="geometry" />
        </mxCell>
        <mxCell id="wQLp2Vd-kYFk8De9ZDS0-2" value="string[] array1&lt;br&gt;string array2&lt;br&gt;int count = 0" style="shape=parallelogram;perimeter=parallelogramPerimeter;whiteSpace=wrap;html=1;fixedSize=1;" parent="1" vertex="1">
          <mxGeometry x="110" y="80" width="120" height="60" as="geometry" />
        </mxCell>
        <mxCell id="wQLp2Vd-kYFk8De9ZDS0-13" style="edgeStyle=orthogonalEdgeStyle;rounded=0;orthogonalLoop=1;jettySize=auto;html=1;entryX=0.5;entryY=0;entryDx=0;entryDy=0;" parent="1" source="wQLp2Vd-kYFk8De9ZDS0-3" target="wQLp2Vd-kYFk8De9ZDS0-4" edge="1">
          <mxGeometry relative="1" as="geometry" />
        </mxCell>
        <mxCell id="wQLp2Vd-kYFk8De9ZDS0-3" value="for (int i = 0; i &amp;lt; array1.length; i++)" style="shape=hexagon;perimeter=hexagonPerimeter2;whiteSpace=wrap;html=1;fixedSize=1;" parent="1" vertex="1">
          <mxGeometry x="60" y="180" width="220" height="30" as="geometry" />
        </mxCell>
        <mxCell id="wQLp2Vd-kYFk8De9ZDS0-7" style="edgeStyle=orthogonalEdgeStyle;rounded=0;orthogonalLoop=1;jettySize=auto;html=1;entryX=0.5;entryY=0;entryDx=0;entryDy=0;" parent="1" source="wQLp2Vd-kYFk8De9ZDS0-4" target="wQLp2Vd-kYFk8De9ZDS0-6" edge="1">
          <mxGeometry relative="1" as="geometry">
            <Array as="points">
              <mxPoint x="360" y="285" />
            </Array>
          </mxGeometry>
        </mxCell>
        <mxCell id="wQLp2Vd-kYFk8De9ZDS0-9" style="edgeStyle=orthogonalEdgeStyle;rounded=0;orthogonalLoop=1;jettySize=auto;html=1;entryX=0;entryY=0.5;entryDx=0;entryDy=0;" parent="1" source="wQLp2Vd-kYFk8De9ZDS0-4" target="wQLp2Vd-kYFk8De9ZDS0-3" edge="1">
          <mxGeometry relative="1" as="geometry">
            <Array as="points">
              <mxPoint x="40" y="285" />
              <mxPoint x="40" y="195" />
            </Array>
          </mxGeometry>
        </mxCell>
        <mxCell id="wQLp2Vd-kYFk8De9ZDS0-4" value="if (array1[i].length &amp;lt;= 3" style="rhombus;whiteSpace=wrap;html=1;" parent="1" vertex="1">
          <mxGeometry x="80" y="250" width="180" height="70" as="geometry" />
        </mxCell>
        <mxCell id="wQLp2Vd-kYFk8De9ZDS0-11" style="edgeStyle=orthogonalEdgeStyle;rounded=0;orthogonalLoop=1;jettySize=auto;html=1;entryX=0;entryY=0.5;entryDx=0;entryDy=0;" parent="1" source="wQLp2Vd-kYFk8De9ZDS0-6" target="wQLp2Vd-kYFk8De9ZDS0-3" edge="1">
          <mxGeometry relative="1" as="geometry">
            <Array as="points">
              <mxPoint x="20" y="375" />
              <mxPoint x="20" y="195" />
            </Array>
          </mxGeometry>
        </mxCell>
        <mxCell id="wQLp2Vd-kYFk8De9ZDS0-6" value="array2[count] = array1[i]; count ++" style="rounded=0;whiteSpace=wrap;html=1;" parent="1" vertex="1">
          <mxGeometry x="260" y="360" width="200" height="30" as="geometry" />
        </mxCell>
        <mxCell id="wQLp2Vd-kYFk8De9ZDS0-8" value="yes" style="text;html=1;align=center;verticalAlign=middle;resizable=0;points=[];autosize=1;strokeColor=none;fillColor=none;" parent="1" vertex="1">
          <mxGeometry x="250" y="258" width="40" height="30" as="geometry" />
        </mxCell>
        <mxCell id="wQLp2Vd-kYFk8De9ZDS0-12" value="no" style="text;html=1;align=center;verticalAlign=middle;resizable=0;points=[];autosize=1;strokeColor=none;fillColor=none;" parent="1" vertex="1">
          <mxGeometry x="50" y="258" width="40" height="30" as="geometry" />
        </mxCell>
      </root>
    </mxGraphModel>
  </diagram>
</mxfile>
